<svg width="267" height="61" viewBox="0 0 267 61" fill="none" xmlns="http://www.w3.org/2000/svg">
<path d="M28.2366 8.08933L21.1774 12.134L14.1183 16.1787L7.05915 20.2233V44.4913L14.1183 40.4467L21.1774 36.402V28.3127L14.1183 32.3573V24.268L21.1774 20.2233L28.2366 16.1787V40.4467L21.1774 44.4913L14.1183 48.536L7.05915 52.5807L0 56.6253L7.05915 60.67L14.1183 56.6253L21.1774 52.5807L28.2366 48.536L35.2957 44.4913V4.04467L28.2366 0V8.08933ZM71.2384 16.9148H77.3434V41.2313C77.3434 45.1789 76.1062 48.1882 73.6399 50.2671C71.1393 52.3587 67.9634 53.4686 64.7048 53.3896C62.3275 53.4462 59.9664 52.9042 57.8236 51.8122C55.8564 50.7719 54.2601 49.1468 53.2549 47.1608L58.5594 43.9251C59.7885 46.3195 61.8989 47.5167 64.8989 47.5167C66.8719 47.5167 68.4163 46.9748 69.5484 45.8827C70.6804 44.7906 71.2465 43.2375 71.2465 41.2232V38.4567C69.4028 41.0453 66.8234 42.3396 63.5 42.3396C60.2575 42.4205 57.1362 41.0291 54.9287 38.5376C52.6202 36.0018 51.3803 32.6717 51.4679 29.2429C51.3951 25.8307 52.6405 22.5218 54.9449 20.0049C56.0058 18.7818 57.3213 17.8055 58.7991 17.1445C60.277 16.4836 61.8814 16.1539 63.5 16.1787C66.8153 16.1787 69.4028 17.473 71.2384 20.0615V16.9148ZM59.5944 34.2826C60.9003 35.5459 62.6457 36.252 64.4622 36.252C66.2788 36.252 68.0242 35.5459 69.3301 34.2826C69.9677 33.6138 70.4651 32.824 70.7928 31.9599C71.1206 31.0957 71.272 30.1747 71.2384 29.251C71.2702 28.3356 71.1185 27.423 70.7922 26.5672C70.4658 25.7114 69.9714 24.9296 69.3381 24.268C68.0327 23.0071 66.2889 22.3025 64.4744 22.3025C62.6598 22.3025 60.916 23.0071 59.6106 24.268C58.9744 24.9283 58.4771 25.7094 58.1479 26.5653C57.8187 27.4212 57.6645 28.3345 57.6942 29.251C57.6616 30.1752 57.8144 31.0966 58.1435 31.9608C58.4726 32.825 58.9715 33.6144 59.6106 34.2826H59.5944ZM87.6936 20.8947C88.2117 19.407 89.244 18.1533 90.6045 17.3597C91.9792 16.567 93.5479 16.1625 95.1327 16.1787V23.2407C93.3228 22.9872 91.483 23.4106 89.9657 24.4298C88.4455 25.441 87.6855 27.1316 87.6855 29.4937V41.2556H81.3864V16.6883H87.6936V20.8947ZM116.399 16.8824H122.625V41.3608H116.399V38.481C114.523 40.8673 111.895 42.0645 108.499 42.0645C106.929 42.0746 105.376 41.7451 103.945 41.0987C102.515 40.4522 101.241 39.5041 100.211 38.3192C97.9067 35.82 96.668 32.5202 96.758 29.1216C96.6691 25.7241 97.9063 22.4075 100.211 19.924C101.241 18.7391 102.515 17.791 103.945 17.1445C105.376 16.4981 106.929 16.1686 108.499 16.1787C111.895 16.1787 114.523 17.3759 116.399 19.7622V16.8824ZM104.868 34.1046C105.489 34.7436 106.236 35.2463 107.062 35.5805C107.887 35.9148 108.773 36.0733 109.663 36.0461C111.467 36.0946 113.213 35.3989 114.483 34.1046C115.122 33.4465 115.621 32.6657 115.951 31.8093C116.28 30.9529 116.433 30.0386 116.399 29.1216C116.433 28.2046 116.28 27.2903 115.951 26.4339C115.621 25.5775 115.122 24.7967 114.483 24.1386C113.856 23.5005 113.105 22.9987 112.276 22.6646C111.446 22.3306 110.557 22.1714 109.663 22.1971C108.773 22.1699 107.887 22.3284 107.062 22.6627C106.236 22.9969 105.489 23.4996 104.868 24.1386C104.235 24.8 103.742 25.582 103.417 26.438C103.092 27.294 102.942 28.2066 102.976 29.1216C102.942 30.0366 103.092 30.9492 103.417 31.8052C103.742 32.6612 104.235 33.4432 104.868 34.1046ZM140.738 16.1787C143.924 16.1463 146.965 17.5377 149.083 19.9968C151.393 22.5573 152.629 25.9086 152.536 29.3562C152.631 32.8066 151.395 36.1611 149.083 38.7236C148.055 39.9283 146.776 40.8935 145.336 41.5517C143.896 42.2098 142.33 42.545 140.746 42.5337C137.35 42.5337 134.738 41.3203 132.895 38.8935V51.7717H126.668V16.8986H132.895V19.827C134.738 17.4002 137.35 16.1868 140.738 16.1868V16.1787ZM134.787 34.4282C135.402 35.0763 136.147 35.5871 136.974 35.9272C137.8 36.2674 138.689 36.4292 139.582 36.402C140.478 36.4275 141.37 36.2651 142.2 35.9252C143.03 35.5852 143.78 35.0753 144.401 34.4282C145.042 33.7531 145.542 32.9567 145.871 32.0857C146.2 31.2147 146.352 30.2867 146.318 29.3562C146.352 28.4257 146.2 27.4977 145.871 26.6267C145.542 25.7557 145.042 24.9593 144.401 24.2842C143.78 23.6371 143.03 23.1272 142.2 22.7872C141.37 22.4473 140.478 22.2849 139.582 22.3104C138.689 22.2837 137.8 22.4458 136.974 22.7859C136.148 23.126 135.403 23.6365 134.787 24.2842C134.152 24.9628 133.659 25.7604 133.334 26.6309C133.009 27.5014 132.86 28.4277 132.895 29.3562C132.86 30.2847 133.009 31.211 133.334 32.0815C133.659 32.952 134.152 33.7496 134.787 34.4282ZM170.552 15.8955C173.107 15.8146 175.573 16.8339 177.344 18.6945C179.139 20.5631 180.037 23.1436 180.037 26.4359V42.0645H173.568V27.2368C173.568 25.538 173.115 24.2437 172.209 23.3458C171.728 22.8874 171.159 22.5314 170.536 22.2992C169.914 22.067 169.25 21.9635 168.587 21.9949C167.842 21.9606 167.099 22.0834 166.406 22.3551C165.712 22.6269 165.083 23.0416 164.56 23.5723C163.557 24.6239 163.048 26.2014 163.048 28.3127V42.0645H156.587V6.47147H163.056V19.4548C164.633 17.0847 167.131 15.8955 170.552 15.8955ZM196.815 42.0645C193.209 42.1454 189.724 40.8026 187.169 38.3596C185.914 37.1745 184.919 35.7412 184.248 34.1508C183.577 32.5604 183.244 30.8477 183.271 29.1216C183.307 26.8109 183.96 24.552 185.163 22.5791C186.366 20.6062 188.075 18.9912 190.112 17.9017C192.19 16.7681 194.521 16.1768 196.888 16.1824C199.255 16.1881 201.583 16.7905 203.656 17.9341C205.587 19.0049 207.134 20.6542 208.079 22.6501L205.306 24.179C204.604 22.6783 203.443 21.4401 201.99 20.644C200.412 19.7566 198.626 19.3044 196.815 19.3335C195.486 19.3029 194.165 19.5392 192.929 20.0283C191.693 20.5173 190.567 21.2493 189.619 22.181C188.672 23.069 187.922 24.1453 187.417 25.3406C186.911 26.5359 186.662 27.8239 186.683 29.1216C186.662 30.4193 186.911 31.7073 187.417 32.9026C187.922 34.0979 188.672 35.1742 189.619 36.0622C191.81 38.2464 194.955 39.298 198.085 38.8935C201.222 38.5052 203.971 36.7094 205.508 34.0642L208.338 35.6416C207.265 37.6267 205.639 39.2569 203.656 40.3334C201.565 41.495 199.207 42.0917 196.815 42.0645ZM237.1 16.1787C239.607 16.0816 242.041 17.0442 243.795 18.832C245.493 20.5954 246.342 22.9737 246.342 25.9748V41.2556H243.068V25.9748C243.068 23.8554 242.518 22.2133 241.41 21.0565C240.846 20.4749 240.165 20.0192 239.413 19.7195C238.66 19.4197 237.853 19.2827 237.043 19.3173C236.12 19.282 235.2 19.445 234.345 19.7952C233.49 20.1454 232.72 20.6748 232.087 21.3477C230.825 22.7068 230.195 24.8181 230.195 27.6898V41.2556H226.912V25.9748C226.912 23.8231 226.394 22.1729 225.359 21.0323C224.823 20.4576 224.169 20.0065 223.442 19.7103C222.714 19.4142 221.931 19.2801 221.146 19.3173C220.211 19.2988 219.282 19.4715 218.416 19.8248C217.549 20.1781 216.764 20.7046 216.109 21.372C214.734 22.7472 214.039 24.8504 214.039 27.6817V41.2556H210.764V16.7692H214.039V20.3447C214.809 19.0357 215.918 17.9583 217.248 17.2254C218.578 16.4924 220.081 16.1309 221.599 16.1787C225.157 16.1787 227.664 17.659 229.111 20.6278C230.89 17.659 233.55 16.1787 237.108 16.1787H237.1ZM251.437 23.1759C251.434 23.7146 251.578 24.2438 251.853 24.7069C252.128 25.17 252.523 25.5496 252.997 25.805C254.17 26.5168 255.455 27.0507 256.798 27.3905L261.253 28.6039C262.701 28.9922 264.002 29.7526 265.021 30.8042C265.541 31.3598 265.945 32.0139 266.209 32.7279C266.473 33.442 266.591 34.2016 266.558 34.9621C266.571 35.9674 266.338 36.9607 265.878 37.8548C265.418 38.7489 264.747 39.5167 263.922 40.0907C262.175 41.4093 259.919 42.0645 257.145 42.0564C254.914 42.1212 252.714 41.5711 250.798 40.4709C249.166 39.5405 247.885 38.0996 247.151 36.3696L250.062 34.7518C250.549 36.0385 251.474 37.1124 252.674 37.7853C254.024 38.5538 255.585 38.9421 257.154 38.9016C258.633 38.9582 260.097 38.6266 261.399 37.9471C261.938 37.664 262.385 37.2326 262.687 36.7037C262.99 36.1749 263.135 35.5706 263.105 34.9621C263.129 33.8781 262.539 32.8589 261.569 32.3007C260.394 31.583 259.118 31.0458 257.784 30.7071L253.321 29.4937C251.881 29.1054 250.571 28.3612 249.536 27.3177C249.013 26.7784 248.606 26.1379 248.339 25.4355C248.072 24.733 247.951 23.9834 247.984 23.2326C247.98 22.2538 248.208 21.2881 248.648 20.4138C249.087 19.5395 249.727 18.7814 250.515 18.201C252.333 16.8067 254.581 16.0915 256.871 16.1787C258.811 16.1463 260.736 16.6155 262.418 17.5539C263.941 18.3886 265.171 19.6703 265.943 21.2264L263.073 22.8038C262.078 20.4984 260 19.3416 256.871 19.3416C255.525 19.3038 254.195 19.6488 253.038 20.3366C252.537 20.6195 252.123 21.0331 251.84 21.5332C251.556 22.0334 251.414 22.6012 251.429 23.1759H251.437Z" fill="white"/>
</svg>
