<svg width="782" height="186" viewBox="0 0 782 186" fill="none" xmlns="http://www.w3.org/2000/svg">
<path d="M231.023 51.2951V135.623H214.109V51.2951H231.023Z" fill="white"/>
<path d="M284.824 67.7258C292.798 67.7258 299.241 70.2629 304.154 75.337C309.067 80.3307 311.524 87.3379 311.524 96.3586V135.623H294.61V98.6541C294.61 93.3383 293.281 89.2709 290.623 86.4519C287.965 83.5524 284.341 82.1026 279.75 82.1026C275.078 82.1026 271.374 83.5524 268.635 86.4519C265.977 89.2709 264.648 93.3383 264.648 98.6541V135.623H247.734V68.6923H264.648V77.0284C266.903 74.1289 269.763 71.8737 273.226 70.2629C276.77 68.5715 280.636 67.7258 284.824 67.7258Z" fill="white"/>
<path d="M358.295 82.5859H346.576V135.623H329.42V82.5859H321.809V68.6923H329.42V65.3095C329.42 57.0942 331.756 51.0535 336.428 47.1874C341.099 43.3214 348.147 41.5092 357.57 41.7508V56.0068C353.462 55.9263 350.603 56.6109 348.992 58.0607C347.381 59.5104 346.576 62.1281 346.576 65.9136V68.6923H358.295V82.5859Z" fill="white"/>
<path d="M431.475 100.708C431.475 103.124 431.314 105.299 430.992 107.232H382.062C382.465 112.064 384.156 115.85 387.136 118.588C390.116 121.327 393.781 122.696 398.13 122.696C404.413 122.696 408.883 119.998 411.541 114.602H429.784C427.851 121.045 424.146 126.361 418.669 130.549C413.192 134.657 406.467 136.71 398.493 136.71C392.049 136.71 386.25 135.301 381.096 132.482C376.022 129.582 372.035 125.515 369.135 120.28C366.316 115.045 364.907 109.004 364.907 102.158C364.907 95.231 366.316 89.1501 369.135 83.9148C371.954 78.6796 375.901 74.6524 380.975 71.8334C386.049 69.0145 391.888 67.605 398.493 67.605C404.856 67.605 410.534 68.9742 415.528 71.7126C420.602 74.4511 424.508 78.3574 427.247 83.4316C430.066 88.4252 431.475 94.184 431.475 100.708ZM413.957 95.8754C413.877 91.5261 412.306 88.0628 409.245 85.4854C406.185 82.8275 402.439 81.4985 398.01 81.4985C393.821 81.4985 390.278 82.7872 387.378 85.3646C384.559 87.8614 382.827 91.365 382.183 95.8754H413.957Z" fill="white"/>
<path d="M460.735 79.0823C462.909 75.5384 465.728 72.7597 469.192 70.7461C472.735 68.7326 476.763 67.7258 481.273 67.7258V85.4854H476.803C471.487 85.4854 467.46 86.7338 464.721 89.2306C462.064 91.7274 460.735 96.0767 460.735 102.279V135.623H443.821V68.6923H460.735V79.0823Z" fill="white"/>
<path d="M554.884 100.708C554.884 103.124 554.723 105.299 554.401 107.232H505.472C505.874 112.064 507.566 115.85 510.546 118.588C513.526 121.327 517.19 122.696 521.54 122.696C527.822 122.696 532.292 119.998 534.95 114.602H553.193C551.26 121.045 547.555 126.361 542.078 130.549C536.601 134.657 529.876 136.71 521.902 136.71C515.459 136.71 509.66 135.301 504.505 132.482C499.431 129.582 495.444 125.515 492.545 120.28C489.726 115.045 488.316 109.004 488.316 102.158C488.316 95.231 489.726 89.1501 492.545 83.9148C495.363 78.6796 499.31 74.6524 504.384 71.8334C509.458 69.0145 515.298 67.605 521.902 67.605C528.265 67.605 533.943 68.9742 538.937 71.7126C544.011 74.4511 547.917 78.3574 550.656 83.4316C553.475 88.4252 554.884 94.184 554.884 100.708ZM537.366 95.8754C537.286 91.5261 535.715 88.0628 532.655 85.4854C529.594 82.8275 525.849 81.4985 521.419 81.4985C517.231 81.4985 513.687 82.7872 510.787 85.3646C507.968 87.8614 506.237 91.365 505.592 95.8754H537.366Z" fill="white"/>
<path d="M604.32 67.7258C612.294 67.7258 618.737 70.2629 623.65 75.337C628.563 80.3307 631.02 87.3379 631.02 96.3586V135.623H614.106V98.6541C614.106 93.3383 612.777 89.2709 610.119 86.4519C607.461 83.5524 603.837 82.1026 599.246 82.1026C594.574 82.1026 590.869 83.5524 588.131 86.4519C585.473 89.2709 584.144 93.3383 584.144 98.6541V135.623H567.23V68.6923H584.144V77.0284C586.399 74.1289 589.258 71.8737 592.722 70.2629C596.266 68.5715 600.132 67.7258 604.32 67.7258Z" fill="white"/>
<path d="M642.755 102.158C642.755 95.231 644.164 89.1903 646.983 84.0356C649.802 78.8004 653.708 74.7732 658.702 71.9543C663.696 69.0547 669.414 67.605 675.858 67.605C684.154 67.605 691 69.6991 696.396 73.8873C701.873 77.9949 705.538 83.794 707.39 91.2845H689.147C688.181 88.3849 686.53 86.1297 684.194 84.5189C681.939 82.8275 679.12 81.9818 675.737 81.9818C670.904 81.9818 667.079 83.7537 664.26 87.2976C661.441 90.7609 660.031 95.7143 660.031 102.158C660.031 108.521 661.441 113.474 664.26 117.018C667.079 120.481 670.904 122.213 675.737 122.213C682.583 122.213 687.053 119.152 689.147 113.031H707.39C705.538 120.28 701.873 126.039 696.396 130.307C690.919 134.576 684.073 136.71 675.858 136.71C669.414 136.71 663.696 135.301 658.702 132.482C653.708 129.582 649.802 125.555 646.983 120.401C644.164 115.165 642.755 109.084 642.755 102.158Z" fill="white"/>
<path d="M782 100.708C782 103.124 781.839 105.299 781.517 107.232H732.587C732.99 112.064 734.681 115.85 737.661 118.588C740.642 121.327 744.306 122.696 748.656 122.696C754.938 122.696 759.408 119.998 762.066 114.602H780.309C778.376 121.045 774.671 126.361 769.194 130.549C763.717 134.657 756.992 136.71 749.018 136.71C742.575 136.71 736.776 135.301 731.621 132.482C726.547 129.582 722.56 125.515 719.66 120.28C716.841 115.045 715.432 109.004 715.432 102.158C715.432 95.231 716.841 89.1501 719.66 83.9148C722.479 78.6796 726.426 74.6524 731.5 71.8334C736.574 69.0145 742.414 67.605 749.018 67.605C755.381 67.605 761.059 68.9742 766.053 71.7126C771.127 74.4511 775.033 78.3574 777.772 83.4316C780.591 88.4252 782 94.184 782 100.708ZM764.482 95.8754C764.402 91.5261 762.831 88.0628 759.77 85.4854C756.71 82.8275 752.965 81.4985 748.535 81.4985C744.346 81.4985 740.803 82.7872 737.903 85.3646C735.084 87.8614 733.352 91.365 732.708 95.8754H764.482Z" fill="white"/>
<rect y="31.1777" width="154.33" height="154.33" rx="55" fill="url(#paint0_linear_107:2287)"/>
<rect x="31.1777" width="154.33" height="154.33" rx="55" fill="url(#paint1_linear_107:2287)"/>
<rect x="15.5889" y="15.5889" width="154.33" height="154.33" rx="55" fill="url(#paint2_linear_107:2287)"/>
<path d="M66.6682 138.741C63.3697 138.741 60.6355 137.739 58.4654 135.736C56.3822 133.646 55.3406 131.076 55.3406 128.028C55.3406 124.979 56.3822 122.453 58.4654 120.45C60.6355 118.359 63.3697 117.314 66.6682 117.314C69.8798 117.314 72.5273 118.359 74.6105 120.45C76.6937 122.453 77.7354 124.979 77.7354 128.028C77.7354 131.076 76.6937 133.646 74.6105 135.736C72.5273 137.739 69.8798 138.741 66.6682 138.741ZM66.6682 84.6512C63.3697 84.6512 60.6355 83.6496 58.4654 81.6462C56.3822 79.5558 55.3406 76.9863 55.3406 73.9378C55.3406 70.8892 56.3822 68.3633 58.4654 66.36C60.6355 64.2696 63.3697 63.2243 66.6682 63.2243C69.8798 63.2243 72.5273 64.2696 74.6105 66.36C76.6937 68.3633 77.7354 70.8892 77.7354 73.9378C77.7354 76.9863 76.6937 79.5558 74.6105 81.6462C72.5273 83.6496 69.8798 84.6512 66.6682 84.6512Z" fill="white"/>
<path d="M114.022 80.4704V115.485C114.022 117.924 114.586 119.709 115.715 120.842C116.93 121.887 118.926 122.41 121.704 122.41H130.167V137.826H118.709C103.346 137.826 95.6636 130.336 95.6636 115.354V80.4704H87.0702V65.4454H95.6636V47.5461H114.022V65.4454H130.167V80.4704H114.022Z" fill="white"/>
<defs>
<linearGradient id="paint0_linear_107:2287" x1="154.33" y1="31.1777" x2="0" y2="185.508" gradientUnits="userSpaceOnUse">
<stop stop-color="#FFB800" stop-opacity="0.42"/>
<stop offset="1" stop-color="#FFB800" stop-opacity="0.51"/>
</linearGradient>
<linearGradient id="paint1_linear_107:2287" x1="185.508" y1="0" x2="31.1777" y2="154.33" gradientUnits="userSpaceOnUse">
<stop stop-color="#FF00A8" stop-opacity="0.42"/>
<stop offset="1" stop-color="#FF00C7" stop-opacity="0.51"/>
</linearGradient>
<linearGradient id="paint2_linear_107:2287" x1="169.919" y1="15.5889" x2="15.5889" y2="169.919" gradientUnits="userSpaceOnUse">
<stop stop-color="#FF00E5"/>
<stop offset="1" stop-color="#FF9900"/>
</linearGradient>
</defs>
</svg>
