<svg width="178" height="71" viewBox="0 0 178 71" fill="none" xmlns="http://www.w3.org/2000/svg">
<g clip-path="url(#clip0_211_136)">
<path fill-rule="evenodd" clip-rule="evenodd" d="M14.1116 70.31C17.6176 70.31 20.3347 67.5091 20.3347 64.0955V56.1805C20.3347 56.1805 20.4224 54.2548 19.1953 52.1542L6.39842 30.0971V21.9195H13.9363V30.9349H20.3347V22.7948C20.3347 19.3812 17.6176 16.5803 14.1116 16.5803H6.22312C2.80478 16.5803 0 19.3812 0 22.7948V29.4844C0 29.4844 5.33514e-06 31.5851 1.2271 33.5982L13.9363 55.6553V64.9708H6.39842V55.9554H0V64.0955C0 67.5091 2.80478 70.31 6.22312 70.31H14.1116ZM41.6336 59.7816H32.6057C29.1873 59.7816 26.3825 56.9807 26.3825 53.5671V22.7573C26.3825 19.3437 29.1873 16.5428 32.6057 16.5428H41.6336C45.0519 16.5428 47.8567 19.3437 47.8567 22.7573V35.7114C47.8567 39.2125 45.0519 42.0134 41.6336 42.0134H32.6057V54.3549H41.5459V48.0529H47.8567V53.5671C47.8567 56.9807 45.0519 59.7816 41.6336 59.7816ZM41.5459 36.4992V22.0571H32.6057V36.4992H41.5459ZM60.8288 59.7816V22.0571H70.3827V16.5428H66.5261C63.283 16.5428 61.6177 18.2058 60.8288 19.8689V16.5428H54.5181V59.7816H60.8288ZM89.315 59.7816H80.3747C76.8687 59.7816 74.0639 56.9807 74.0639 53.5671V22.8448C74.0639 19.3437 76.8687 16.5428 80.3747 16.5428H89.315C92.821 16.5428 95.5381 19.3437 95.5381 22.8448V53.5671C95.5381 56.9807 92.821 59.7816 89.315 59.7816ZM89.315 54.3549V22.0571H80.3747V54.3549H89.315ZM124.024 59.7816L122.096 41.0506C121.658 36.9368 119.905 34.8361 116.837 34.486L124.55 16.5428H118.327L110.789 34.3985H108.598V0H102.375V59.7816H108.598V39.6502H115.873L117.801 59.7816H124.024ZM144.359 59.7816H135.331C131.913 59.7816 129.108 56.9807 129.108 53.5671V22.7573C129.108 19.3437 131.913 16.5428 135.331 16.5428H144.359C147.777 16.5428 150.582 19.3437 150.582 22.7573V35.7114C150.582 39.2125 147.777 42.0134 144.359 42.0134H135.331V54.3549H144.271V48.0529H150.582V53.5671C150.582 56.9807 147.777 59.7816 144.359 59.7816ZM144.271 36.4992V22.0571H135.331V36.4992H144.271ZM163.554 59.7816V0H157.243V59.7816H163.554ZM177.228 59.7816H170.917V0H177.228V59.7816ZM26.2949 70.36V65.0208H177.228V70.36H26.2949Z" fill="white"/>
</g>
<defs>
<clipPath id="clip0_211_136">
<rect width="177.228" height="70.36" fill="white"/>
</clipPath>
</defs>
</svg>
