<svg width="319" height="44" viewBox="0 0 319 44" fill="none" xmlns="http://www.w3.org/2000/svg">
<path fill-rule="evenodd" clip-rule="evenodd" d="M55.3278 21.8361C55.412 21.5045 55.4437 21.1503 55.3998 20.7784L53.2451 2.48928C53.0504 0.837048 51.1401 0.0151385 49.8066 1.00974L42.1809 6.69789C37.969 4.867 33.014 3.81062 27.7104 3.81062C22.6127 3.81062 17.8376 4.78695 13.7344 6.48839L5.61407 0.431391C4.28053 -0.5633 2.37025 0.258605 2.1756 1.91084L0.0208204 20.1999C-0.0310338 20.6399 0.0188334 21.0567 0.142791 21.4377C0.0483562 22.0972 0 22.7661 0 23.4431C0 34.2858 12.4063 43.0756 27.7104 43.0756C43.0144 43.0756 55.4207 34.2858 55.4207 23.4431C55.4207 22.902 55.3885 22.3662 55.3278 21.8361ZM17.9966 19.2988C17.9966 21.7553 16.0052 23.7468 13.5486 23.7468C11.092 23.7468 9.10064 21.7553 9.10064 19.2988C9.10064 16.8422 11.092 14.8509 13.5486 14.8509C16.0052 14.8509 17.9966 16.8422 17.9966 19.2988ZM40.3215 20.9937L43.1026 23.7747L44.8877 21.9897L42.1067 19.2088L44.836 16.479L43.2321 14.8751L40.5028 17.6049L37.7214 14.8235L35.9363 16.6085L38.7176 19.3898L35.9882 22.1192L37.5922 23.7231L40.3215 20.9937Z" fill="white"/>
<path d="M81.1353 31.4849C79.7235 31.4849 78.4549 31.2379 77.3295 30.7439C76.2245 30.2293 75.3549 29.5295 74.7206 28.6444C74.0863 27.7387 73.7589 26.6992 73.7384 25.526H76.7156C76.8179 26.5346 77.2271 27.3888 77.9433 28.0886C78.6799 28.7679 79.7439 29.1075 81.1353 29.1075C82.4654 29.1075 83.5089 28.7782 84.266 28.1195C85.0436 27.4402 85.4323 26.5757 85.4323 25.526C85.4323 24.7026 85.2072 24.0337 84.7571 23.5191C84.3069 23.0045 83.7442 22.6134 83.069 22.3458C82.3937 22.0782 81.4832 21.7901 80.3373 21.4813C78.9255 21.1108 77.7898 20.7403 76.9304 20.3698C76.0915 19.9993 75.3651 19.423 74.7513 18.6408C74.1579 17.838 73.8612 16.7677 73.8612 15.4298C73.8612 14.2565 74.1579 13.217 74.7513 12.3114C75.3447 11.4057 76.1734 10.7059 77.2374 10.2118C78.3218 9.71785 79.5598 9.47084 80.9512 9.47084C82.9564 9.47084 84.5934 9.97514 85.862 10.9837C87.1511 11.9923 87.8775 13.3302 88.0412 14.9975H84.9719C84.8696 14.1742 84.4399 13.4538 83.6828 12.8362C82.9258 12.1982 81.9231 11.8791 80.675 11.8791C79.5086 11.8791 78.5572 12.1879 77.8205 12.8054C77.0839 13.4023 76.7156 14.2462 76.7156 15.3371C76.7156 16.1193 76.9304 16.7574 77.3601 17.2514C77.8103 17.7454 78.3525 18.1262 78.9869 18.3938C79.6416 18.6408 80.5522 18.929 81.7185 19.2583C83.1304 19.6494 84.266 20.0405 85.1254 20.4316C85.9848 20.8021 86.7214 21.3887 87.3353 22.1914C87.9491 22.9736 88.2561 24.044 88.2561 25.4025C88.2561 26.4522 87.9798 27.4402 87.4274 28.3665C86.8749 29.2928 86.0564 30.0441 84.9719 30.6204C83.8875 31.1967 82.6086 31.4849 81.1353 31.4849Z" fill="white"/>
<path d="M91.3227 22.7781C91.3227 21.0285 91.6705 19.5053 92.3662 18.2085C93.0619 16.8912 94.0236 15.8723 95.2514 15.1519C96.4995 14.4315 97.9216 14.0713 99.5176 14.0713C101.584 14.0713 103.283 14.5756 104.613 15.5841C105.963 16.5927 106.853 17.9924 107.283 19.7832H104.275C103.989 18.754 103.426 17.941 102.587 17.344C101.768 16.7471 100.745 16.4486 99.5176 16.4486C97.9216 16.4486 96.6325 17.0044 95.6504 18.1159C94.6682 19.2068 94.1771 20.7609 94.1771 22.7781C94.1771 24.8158 94.6682 26.3905 95.6504 27.502C96.6325 28.6135 97.9216 29.1693 99.5176 29.1693C100.745 29.1693 101.768 28.8811 102.587 28.3047C103.405 27.7284 103.968 26.9051 104.275 25.8347H107.283C106.833 27.5637 105.932 28.9531 104.582 30.0029C103.231 31.0321 101.543 31.5466 99.5176 31.5466C97.9216 31.5466 96.4995 31.1864 95.2514 30.466C94.0236 29.7456 93.0619 28.7267 92.3662 27.4094C91.6705 26.092 91.3227 24.5483 91.3227 22.7781Z" fill="white"/>
<path d="M119.358 14.0404C120.627 14.0404 121.773 14.3183 122.796 14.874C123.819 15.4092 124.617 16.2222 125.19 17.3132C125.783 18.4041 126.08 19.7317 126.08 21.2961V31.2688H123.317V21.6974C123.317 20.0096 122.898 18.7231 122.059 17.838C121.22 16.9324 120.074 16.4795 118.621 16.4795C117.148 16.4795 115.972 16.9427 115.092 17.8689C114.232 18.7952 113.803 20.1434 113.803 21.9136V31.2688H111.01V8.42109H113.803V16.7574C114.355 15.8929 115.112 15.2239 116.074 14.7505C117.056 14.2771 118.151 14.0404 119.358 14.0404Z" fill="white"/>
<path d="M133.435 17.097C133.926 16.1296 134.622 15.3783 135.522 14.8431C136.443 14.308 137.558 14.0404 138.868 14.0404V16.9427H138.131C135.001 16.9427 133.435 18.6511 133.435 22.0679V31.2688H130.642V14.3491H133.435V17.097Z" fill="white"/>
<path d="M149.428 31.5466C147.852 31.5466 146.42 31.1864 145.131 30.466C143.862 29.7456 142.859 28.7267 142.123 27.4094C141.407 26.0714 141.048 24.5277 141.048 22.7781C141.048 21.0491 141.417 19.5259 142.153 18.2085C142.91 16.8706 143.934 15.8517 145.223 15.1519C146.512 14.4315 147.954 14.0713 149.55 14.0713C151.146 14.0713 152.589 14.4315 153.878 15.1519C155.167 15.8517 156.18 16.8603 156.917 18.1777C157.674 19.495 158.052 21.0285 158.052 22.7781C158.052 24.5277 157.663 26.0714 156.886 27.4094C156.129 28.7267 155.096 29.7456 153.786 30.466C152.476 31.1864 151.024 31.5466 149.428 31.5466ZM149.428 29.0766C150.43 29.0766 151.371 28.8399 152.251 28.3665C153.131 27.8931 153.837 27.1829 154.369 26.2361C154.922 25.2893 155.198 24.1366 155.198 22.7781C155.198 21.4196 154.932 20.2669 154.4 19.32C153.868 18.3732 153.172 17.6734 152.313 17.2205C151.453 16.7471 150.522 16.5104 149.52 16.5104C148.497 16.5104 147.555 16.7471 146.696 17.2205C145.857 17.6734 145.182 18.3732 144.67 19.32C144.159 20.2669 143.903 21.4196 143.903 22.7781C143.903 24.1572 144.148 25.3201 144.64 26.267C145.151 27.2138 145.826 27.924 146.665 28.3974C147.504 28.8502 148.425 29.0766 149.428 29.0766ZM147.095 11.8482C146.645 11.8482 146.256 11.6939 145.929 11.3851C145.622 11.0764 145.468 10.6956 145.468 10.2427C145.468 9.78989 145.622 9.40909 145.929 9.10034C146.256 8.77101 146.645 8.60634 147.095 8.60634C147.525 8.60634 147.893 8.77101 148.2 9.10034C148.527 9.40909 148.691 9.78989 148.691 10.2427C148.691 10.6956 148.527 11.0764 148.2 11.3851C147.893 11.6939 147.525 11.8482 147.095 11.8482ZM152.067 11.8482C151.617 11.8482 151.238 11.6939 150.932 11.3851C150.625 11.0764 150.471 10.6956 150.471 10.2427C150.471 9.78989 150.625 9.40909 150.932 9.10034C151.238 8.77101 151.617 8.60634 152.067 8.60634C152.517 8.60634 152.896 8.77101 153.203 9.10034C153.53 9.40909 153.694 9.78989 153.694 10.2427C153.694 10.6956 153.53 11.0764 153.203 11.3851C152.896 11.6939 152.517 11.8482 152.067 11.8482Z" fill="white"/>
<path d="M160.681 22.7472C160.681 21.0182 161.029 19.5053 161.725 18.2085C162.42 16.8912 163.372 15.8723 164.579 15.1519C165.807 14.4315 167.178 14.0713 168.692 14.0713C170.001 14.0713 171.219 14.38 172.344 14.9975C173.47 15.5944 174.329 16.3869 174.922 17.3749V8.42109H177.746V31.2688H174.922V28.0886C174.37 29.0972 173.551 29.9308 172.467 30.5895C171.383 31.2276 170.114 31.5466 168.661 31.5466C167.167 31.5466 165.807 31.1761 164.579 30.4351C163.372 29.6941 162.42 28.6547 161.725 27.3167C161.029 25.9788 160.681 24.4556 160.681 22.7472ZM174.922 22.7781C174.922 21.5019 174.667 20.3904 174.155 19.4435C173.644 18.4967 172.948 17.7763 172.068 17.2823C171.209 16.7677 170.257 16.5104 169.214 16.5104C168.17 16.5104 167.219 16.7574 166.359 17.2514C165.5 17.7454 164.814 18.4658 164.303 19.4127C163.791 20.3595 163.535 21.471 163.535 22.7472C163.535 24.044 163.791 25.1761 164.303 26.1435C164.814 27.0903 165.5 27.821 166.359 28.3356C167.219 28.8296 168.17 29.0766 169.214 29.0766C170.257 29.0766 171.209 28.8296 172.068 28.3356C172.948 27.821 173.644 27.0903 174.155 26.1435C174.667 25.1761 174.922 24.0543 174.922 22.7781Z" fill="white"/>
<path d="M183.909 11.6012C183.377 11.6012 182.927 11.416 182.558 11.0455C182.19 10.675 182.006 10.2221 182.006 9.68697C182.006 9.1518 182.19 8.69896 182.558 8.32846C182.927 7.95796 183.377 7.77271 183.909 7.77271C184.42 7.77271 184.85 7.95796 185.198 8.32846C185.566 8.69896 185.75 9.1518 185.75 9.68697C185.75 10.2221 185.566 10.675 185.198 11.0455C184.85 11.416 184.42 11.6012 183.909 11.6012ZM185.259 14.3491V31.2688H182.466V14.3491H185.259Z" fill="white"/>
<path d="M198.214 14.0404C200.261 14.0404 201.918 14.6682 203.187 15.9238C204.455 17.1588 205.09 18.9495 205.09 21.2961V31.2688H202.327V21.6974C202.327 20.0096 201.908 18.7231 201.069 17.838C200.23 16.9324 199.084 16.4795 197.631 16.4795C196.158 16.4795 194.981 16.9427 194.102 17.8689C193.242 18.7952 192.812 20.1434 192.812 21.9136V31.2688H190.019V14.3491H192.812V16.7574C193.365 15.8929 194.112 15.2239 195.053 14.7505C196.015 14.2771 197.069 14.0404 198.214 14.0404Z" fill="white"/>
<path d="M216.589 14.0713C218.041 14.0713 219.31 14.3903 220.394 15.0284C221.499 15.6665 222.318 16.4692 222.85 17.4367V14.3491H225.674V31.6393C225.674 33.183 225.346 34.5518 224.691 35.7457C224.037 36.9601 223.095 37.9069 221.868 38.5862C220.66 39.2655 219.249 39.6051 217.632 39.6051C215.422 39.6051 213.581 39.0802 212.107 38.0304C210.634 36.9807 209.764 35.5501 209.498 33.7388H212.261C212.568 34.768 213.202 35.5913 214.164 36.2088C215.125 36.8469 216.282 37.1659 217.632 37.1659C219.167 37.1659 220.415 36.6822 221.377 35.7148C222.359 34.7474 222.85 33.3889 222.85 31.6393V28.0886C222.297 29.0766 221.479 29.9 220.394 30.5586C219.31 31.2173 218.041 31.5466 216.589 31.5466C215.095 31.5466 213.734 31.1761 212.506 30.4351C211.299 29.6941 210.348 28.6547 209.652 27.3167C208.956 25.9788 208.608 24.4556 208.608 22.7472C208.608 21.0182 208.956 19.5053 209.652 18.2085C210.348 16.8912 211.299 15.8723 212.506 15.1519C213.734 14.4315 215.095 14.0713 216.589 14.0713ZM222.85 22.7781C222.85 21.5019 222.594 20.3904 222.083 19.4435C221.571 18.4967 220.875 17.7763 219.995 17.2823C219.136 16.7677 218.185 16.5104 217.141 16.5104C216.097 16.5104 215.146 16.7574 214.287 17.2514C213.427 17.7454 212.742 18.4658 212.23 19.4127C211.719 20.3595 211.463 21.471 211.463 22.7472C211.463 24.044 211.719 25.1761 212.23 26.1435C212.742 27.0903 213.427 27.821 214.287 28.3356C215.146 28.8296 216.097 29.0766 217.141 29.0766C218.185 29.0766 219.136 28.8296 219.995 28.3356C220.875 27.821 221.571 27.0903 222.083 26.1435C222.594 25.1761 222.85 24.0543 222.85 22.7781Z" fill="white"/>
<path d="M245.74 22.1606C245.74 22.6957 245.709 23.2618 245.648 23.8587H232.204C232.307 25.526 232.869 26.833 233.892 27.7799C234.936 28.7061 236.194 29.1693 237.668 29.1693C238.875 29.1693 239.878 28.8914 240.676 28.3356C241.494 27.7593 242.067 26.9977 242.394 26.0509H245.402C244.952 27.6769 244.052 29.0046 242.701 30.0338C241.351 31.0424 239.673 31.5466 237.668 31.5466C236.072 31.5466 234.639 31.1864 233.371 30.466C232.123 29.7456 231.14 28.7267 230.424 27.4094C229.708 26.0714 229.35 24.5277 229.35 22.7781C229.35 21.0285 229.698 19.495 230.394 18.1777C231.089 16.8603 232.061 15.8517 233.309 15.1519C234.578 14.4315 236.031 14.0713 237.668 14.0713C239.264 14.0713 240.676 14.4212 241.903 15.121C243.131 15.8209 244.072 16.7883 244.727 18.0233C245.402 19.2377 245.74 20.6168 245.74 22.1606ZM242.855 21.5739C242.855 20.5036 242.619 19.5876 242.149 18.826C241.678 18.0439 241.034 17.4572 240.215 17.0662C239.417 16.6545 238.527 16.4486 237.545 16.4486C236.133 16.4486 234.926 16.9015 233.923 17.8072C232.941 18.7128 232.378 19.9684 232.235 21.5739H242.855Z" fill="white"/>
<path d="M252.22 17.097C252.711 16.1296 253.406 15.3783 254.307 14.8431C255.228 14.308 256.343 14.0404 257.652 14.0404V16.9427H256.916C253.785 16.9427 252.22 18.6511 252.22 22.0679V31.2688H249.427V14.3491H252.22V17.097Z" fill="white"/>
<path d="M285.541 9.74872V31.2688H282.748V21.5122H271.852V31.2688H269.059V9.74872H271.852V19.1965H282.748V9.74872H285.541Z" fill="white"/>
<path d="M289.267 22.7472C289.267 21.0182 289.615 19.5053 290.31 18.2085C291.006 16.8912 291.957 15.8723 293.165 15.1519C294.392 14.4315 295.753 14.0713 297.247 14.0713C298.72 14.0713 299.999 14.3903 301.083 15.0284C302.168 15.6665 302.976 16.4692 303.508 17.4367V14.3491H306.332V31.2688H303.508V28.1195C302.956 29.1075 302.127 29.9308 301.022 30.5895C299.938 31.2276 298.669 31.5466 297.216 31.5466C295.722 31.5466 294.372 31.1761 293.165 30.4351C291.957 29.6941 291.006 28.6547 290.31 27.3167C289.615 25.9788 289.267 24.4556 289.267 22.7472ZM303.508 22.7781C303.508 21.5019 303.252 20.3904 302.741 19.4435C302.229 18.4967 301.534 17.7763 300.654 17.2823C299.794 16.7677 298.843 16.5104 297.799 16.5104C296.756 16.5104 295.804 16.7574 294.945 17.2514C294.085 17.7454 293.4 18.4658 292.888 19.4127C292.377 20.3595 292.121 21.471 292.121 22.7472C292.121 24.044 292.377 25.1761 292.888 26.1435C293.4 27.0903 294.085 27.821 294.945 28.3356C295.804 28.8296 296.756 29.0766 297.799 29.0766C298.843 29.0766 299.794 28.8296 300.654 28.3356C301.534 27.821 302.229 27.0903 302.741 26.1435C303.252 25.1761 303.508 24.0543 303.508 22.7781Z" fill="white"/>
<path d="M314.459 16.6648V26.6375C314.459 27.4608 314.633 28.0475 314.98 28.3974C315.328 28.7267 315.932 28.8914 316.791 28.8914H318.848V31.2688H316.331C314.776 31.2688 313.61 30.9086 312.832 30.1881C312.054 29.4677 311.666 28.2842 311.666 26.6375V16.6648H309.486V14.3491H311.666V10.0883H314.459V14.3491H318.848V16.6648H314.459Z" fill="white"/>
</svg>
