<svg width="319" height="28" viewBox="0 0 319 28" fill="none" xmlns="http://www.w3.org/2000/svg">
<g clip-path="url(#clip0_211_140)">
<path d="M63.1407 6.36141H56.0594V4.09155H72.6847V6.36141H65.6034V23.2233H63.1407V6.36141Z" fill="white"/>
<path d="M78.4085 20.8047C77.4855 19.9491 76.7535 18.9312 76.2122 17.7512C75.6797 16.5713 75.4135 15.3823 75.4135 14.1843C75.4135 12.9863 75.5333 11.9504 75.7729 11.0767C76.0214 10.194 76.372 9.38334 76.8245 8.64474C77.277 7.89714 77.8183 7.22607 78.4483 6.63159C79.0783 6.03711 79.7795 5.5327 80.5515 5.11835C82.1664 4.25364 83.9281 3.82129 85.8358 3.82129C87.6639 3.82129 89.3676 4.23562 90.9472 5.0643C92.4823 5.87497 93.707 7.00089 94.621 8.44207C95.5527 9.94632 96.0186 11.6172 96.0186 13.4547C96.0186 16.3641 95.0071 18.7736 92.9838 20.6831C91.7149 21.8811 90.1841 22.7052 88.3915 23.1557C87.4953 23.3808 86.457 23.4934 85.2768 23.4934C84.0967 23.4934 82.8897 23.2592 81.6563 22.7909C80.4227 22.3135 79.3402 21.6514 78.4085 20.8047ZM80.232 8.17186C79.5488 8.82939 79.0073 9.60854 78.608 10.5093C78.2176 11.41 78.0224 12.4008 78.0224 13.4817C78.0224 14.5626 78.2265 15.5759 78.6347 16.5217C79.0428 17.4675 79.602 18.2917 80.3119 18.9942C81.8292 20.4984 83.6705 21.2506 85.8358 21.2506C87.939 21.2506 89.7225 20.5481 91.1868 19.1429C92.6687 17.7197 93.4097 15.9588 93.4097 13.86C93.4097 12.4369 93.0548 11.1173 92.3449 9.90127C91.6794 8.74833 90.7432 7.82058 89.5362 7.118C88.3472 6.41541 87.1315 6.06412 85.8891 6.06412C84.6468 6.06412 83.5641 6.25329 82.6412 6.63159C81.7273 7.00089 80.9242 7.51432 80.232 8.17186Z" fill="white"/>
<path d="M101.663 4.10522H102.395L110.714 13.3603L119.02 4.10522H119.805L121.403 23.2235H118.993L117.782 8.83412L110.741 16.7516H110.474L103.646 8.9557L102.581 23.2235H100.198L101.663 4.10522Z" fill="white"/>
<path d="M128.59 20.8047C127.668 19.9491 126.935 18.9312 126.394 17.7512C125.862 16.5713 125.596 15.3823 125.596 14.1843C125.596 12.9863 125.715 11.9504 125.955 11.0767C126.203 10.194 126.554 9.38334 127.006 8.64474C127.459 7.89714 128 7.22607 128.63 6.63159C129.26 6.03711 129.961 5.5327 130.733 5.11835C132.349 4.25364 134.11 3.82129 136.018 3.82129C137.846 3.82129 139.55 4.23562 141.129 5.0643C142.664 5.87497 143.889 7.00089 144.803 8.44207C145.735 9.94632 146.201 11.6172 146.201 13.4547C146.201 16.3641 145.189 18.7736 143.166 20.6831C141.897 21.8811 140.366 22.7052 138.574 23.1557C137.677 23.3808 136.639 23.4934 135.459 23.4934C134.279 23.4934 133.072 23.2592 131.838 22.7909C130.605 22.3135 129.522 21.6514 128.59 20.8047ZM130.414 8.17186C129.731 8.82939 129.189 9.60854 128.79 10.5093C128.4 11.41 128.205 12.4008 128.205 13.4817C128.205 14.5626 128.409 15.5759 128.817 16.5217C129.225 17.4675 129.784 18.2917 130.494 18.9942C132.011 20.4984 133.853 21.2506 136.018 21.2506C138.121 21.2506 139.905 20.5481 141.369 19.1429C142.851 17.7197 143.592 15.9588 143.592 13.86C143.592 12.4369 143.237 11.1173 142.527 9.90127C141.861 8.74833 140.925 7.82058 139.718 7.118C138.529 6.41541 137.313 6.06412 136.071 6.06412C134.829 6.06412 133.746 6.25329 132.823 6.63159C131.909 7.00089 131.106 7.51432 130.414 8.17186Z" fill="white"/>
<path d="M166.966 9.98238C166.966 12.8197 165.679 14.7788 163.106 15.8597L166.686 23.2233H163.824L160.59 16.5623C159.711 16.6974 158.793 16.7649 157.834 16.7649H152.936V23.2233H150.473V4.09155H158.207C160.993 4.09155 163.075 4.47887 164.45 5.25349C166.127 6.19026 166.966 7.76656 166.966 9.98238ZM158.167 14.4951C160.155 14.4951 161.628 14.2158 162.586 13.6574C163.767 12.9638 164.357 11.7929 164.357 10.1445C164.357 8.00074 162.99 6.78474 160.257 6.49652C159.467 6.40644 158.655 6.36141 157.821 6.36141H152.936V14.4951H158.167Z" fill="white"/>
<path d="M187.597 9.98238C187.597 12.8197 186.31 14.7788 183.737 15.8597L187.318 23.2233H184.456L181.221 16.5623C180.343 16.6974 179.424 16.7649 178.466 16.7649H173.568V23.2233H171.105V4.09155H178.839C181.625 4.09155 183.706 4.47887 185.081 5.25349C186.759 6.19026 187.597 7.76656 187.597 9.98238ZM178.799 14.4951C180.786 14.4951 182.26 14.2158 183.218 13.6574C184.398 12.9638 184.988 11.7929 184.988 10.1445C184.988 8.00074 183.622 6.78474 180.888 6.49652C180.099 6.40644 179.287 6.36141 178.453 6.36141H173.568V14.4951H178.799Z" fill="white"/>
<path d="M194.106 20.8047C193.183 19.9491 192.451 18.9312 191.91 17.7512C191.377 16.5713 191.111 15.3823 191.111 14.1843C191.111 12.9863 191.231 11.9504 191.471 11.0767C191.719 10.194 192.07 9.38334 192.522 8.64474C192.975 7.89714 193.516 7.22607 194.146 6.63159C194.776 6.03711 195.477 5.5327 196.249 5.11835C197.865 4.25364 199.626 3.82129 201.534 3.82129C203.362 3.82129 205.066 4.23562 206.645 5.0643C208.18 5.87497 209.404 7.00089 210.319 8.44207C211.25 9.94632 211.717 11.6172 211.717 13.4547C211.717 16.3641 210.705 18.7736 208.682 20.6831C207.413 21.8811 205.882 22.7052 204.09 23.1557C203.193 23.3808 202.156 23.4934 200.974 23.4934C199.793 23.4934 198.587 23.2592 197.354 22.7909C196.121 22.3135 195.038 21.6514 194.106 20.8047ZM195.93 8.17186C195.246 8.82939 194.705 9.60854 194.306 10.5093C193.915 11.41 193.72 12.4008 193.72 13.4817C193.72 14.5626 193.924 15.5759 194.332 16.5217C194.741 17.4675 195.3 18.2917 196.01 18.9942C197.528 20.4984 199.367 21.2506 201.534 21.2506C203.636 21.2506 205.421 20.5481 206.884 19.1429C208.367 17.7197 209.108 15.9588 209.108 13.86C209.108 12.4369 208.753 11.1173 208.042 9.90127C207.377 8.74833 206.44 7.82058 205.234 7.118C204.045 6.41541 202.83 6.06412 201.588 6.06412C200.343 6.06412 199.261 6.25329 198.338 6.63159C197.425 7.00089 196.622 7.51432 195.93 8.17186Z" fill="white"/>
<path d="M214.166 4.09155H217.028C219.796 11.0723 221.261 14.7698 221.421 15.1841C221.784 16.193 222.024 16.8775 222.139 17.2378C222.139 17.2378 222.249 17.5576 222.472 18.1971H222.592C222.706 17.7738 222.831 17.3414 222.965 16.9001C222.965 16.9001 223.115 16.4227 223.416 15.4679C223.586 14.9455 223.771 14.4005 223.976 13.833L227.423 4.09155H228.182L231.735 13.6304L233.268 18.1971H233.386L234.332 15.1166C234.5 14.5761 234.674 14.0672 234.851 13.5898L238.245 4.09155H241.108L233.68 23.4934H232.921L228.874 12.6576C228.758 12.3693 228.644 12.0406 228.527 11.6713L227.81 9.44194H227.729L227.384 10.6174C227.285 10.9507 227.179 11.2975 227.064 11.6578L222.884 23.4934H222.125L214.166 4.09155Z" fill="white"/>
<path d="M243.994 3.854H252.665C254.735 3.854 256.563 4.25985 258.142 5.07152C259.742 5.86476 260.978 6.99003 261.851 8.44734C262.741 9.90467 263.186 11.6018 263.186 13.5388C263.186 15.4757 262.741 17.1728 261.851 18.6302C260.978 20.0875 259.742 21.222 258.142 22.0336C256.563 22.8269 254.735 23.2236 252.665 23.2236H243.994V3.854ZM252.446 19.5433C254.354 19.5433 255.871 19.0083 256.999 17.9384C258.142 16.85 258.716 15.3835 258.716 13.5388C258.716 11.6941 258.142 10.2367 256.999 9.16679C255.871 8.07841 254.354 7.53422 252.446 7.53422H248.411V19.5433H252.446Z" fill="white"/>
<path d="M281.292 19.6263V23.2236H266.517V3.854H280.937V7.4512H270.906V11.6572H279.766V15.1437H270.906V19.6263H281.292Z" fill="white"/>
<path d="M302.886 3.854L294.625 23.2236H290.264L282.031 3.854H286.803L292.608 17.6894L298.496 3.854H302.886Z" fill="white"/>
<path d="M310.749 23.5553C309.241 23.5553 307.777 23.3524 306.36 22.9465C304.962 22.5224 303.834 21.9782 302.98 21.3139L304.479 17.9382C305.297 18.5469 306.269 19.0358 307.397 19.4047C308.523 19.7737 309.649 19.9582 310.777 19.9582C312.031 19.9582 312.958 19.7737 313.557 19.4047C314.156 19.0173 314.456 18.51 314.456 17.8828C314.456 17.4216 314.275 17.0435 313.912 16.7483C313.567 16.4347 313.111 16.1857 312.547 16.0012C312.003 15.8167 311.258 15.6138 310.313 15.3925C308.86 15.042 307.669 14.6915 306.742 14.341C305.815 13.9905 305.015 13.4278 304.343 12.6531C303.688 11.8783 303.361 10.8452 303.361 9.55393C303.361 8.42865 303.662 7.41406 304.262 6.51016C304.861 5.5878 305.76 4.85914 306.959 4.32416C308.178 3.78921 309.659 3.52173 311.404 3.52173C312.62 3.52173 313.811 3.66931 314.975 3.96445C316.138 4.25961 317.156 4.6839 318.027 5.2373L316.665 8.64081C314.902 7.62622 313.139 7.11892 311.376 7.11892C310.14 7.11892 309.223 7.32183 308.623 7.72767C308.042 8.13351 307.75 8.66847 307.75 9.33258C307.75 9.99667 308.087 10.4947 308.759 10.8268C309.45 11.1404 310.495 11.454 311.895 11.7676C313.348 12.1181 314.539 12.4686 315.466 12.8191C316.393 13.1696 317.183 13.723 317.838 14.4793C318.51 15.2356 318.845 16.2595 318.845 17.5508C318.845 18.6576 318.536 19.6721 317.919 20.5945C317.319 21.4984 316.41 22.2178 315.192 22.7528C313.975 23.2878 312.494 23.5553 310.749 23.5553Z" fill="white"/>
<path fill-rule="evenodd" clip-rule="evenodd" d="M18.4306 24.4673L17.4232 26.204H32.1205L31.1131 24.4673H18.4306ZM32.1205 0.868374H17.4232L18.4306 2.60512H31.1125L32.1205 0.868374ZM19.438 4.34187L14.1043 13.5362L19.438 22.7306H30.1051L35.4388 13.5362L30.1051 4.34187H19.438ZM16.9195 27.0724L9.06689 13.5362L16.919 0H32.6236L40.4762 13.5362L32.6242 27.0724H16.9195Z" fill="white"/>
<path fill-rule="evenodd" clip-rule="evenodd" d="M39.9728 5.72127L42.4912 1.37939L49.5433 13.5361L42.4912 25.6928L39.9728 21.3509L44.5064 13.5361L39.9728 5.72127Z" fill="white"/>
<path fill-rule="evenodd" clip-rule="evenodd" d="M7.05223 25.6928L0 13.5361L7.05223 1.37939L9.57067 5.72127L5.03746 13.5361L9.57067 21.3509L7.05223 25.6928Z" fill="white"/>
</g>
<defs>
<clipPath id="clip0_211_140">
<rect width="318.848" height="27.0916" fill="white"/>
</clipPath>
</defs>
</svg>
